<svg xmlns="http://www.w3.org/2000/svg" viewBox="0 0 128 128">
  <defs>
    <linearGradient id="bg" x1="0" y1="0" x2="1" y2="1">
      <stop offset="0%" stop-color="#8e6bff"/>
      <stop offset="100%" stop-color="#5a3ad0"/>
    </linearGradient>
    <radialGradient id="glow" cx="0.5" cy="0.45" r="0.55">
      <stop offset="0%" stop-color="#ffffff" stop-opacity="0.25"/>
      <stop offset="100%" stop-color="#ffffff" stop-opacity="0"/>
    </radialGradient>
  </defs>
  <rect x="0" y="0" width="128" height="128" rx="28" ry="28" fill="url(#bg)"/>
  <rect x="0" y="0" width="128" height="128" rx="28" ry="28" fill="url(#glow)"/>
  <path d="M24 38c0-7 6-13 13-13h54c7 0 13 6 13 13v32c0 7-6 13-13 13H62l-16 14c-2 2-5 0-5-3V83h-4c-7 0-13-6-13-13V38z" fill="#ffffff"/>
  <path d="M64 40l5.2 11.4L80 56l-10.8 4.6L64 72l-5.2-11.4L48 56l10.8-4.6z" fill="#7856ff"/>
  <circle cx="86" cy="44" r="3.2" fill="#7856ff"/>
  <circle cx="44" cy="68" r="2.4" fill="#7856ff"/>
</svg>
